<?xml version="1.0" encoding="UTF-8" standalone="no" ?>
<!DOCTYPE svg PUBLIC "-//W3C//DTD SVG 1.1//EN" "http://www.w3.org/Graphics/SVG/1.1/DTD/svg11.dtd">
<svg xmlns="http://www.w3.org/2000/svg" xmlns:xlink="http://www.w3.org/1999/xlink" version="1.1" width="1080" height="1080" viewBox="0 0 1080 1080" xml:space="preserve">
<desc>Created with Fabric.js 5.2.4</desc>
<defs>
</defs>
<rect x="0" y="0" width="100%" height="100%" fill="transparent"></rect>
<g transform="matrix(1 0 0 1 540 540)" id="086915a7-a650-4786-82db-286b2e1d40ef"  >
<rect style="stroke: none; stroke-width: 1; stroke-dasharray: none; stroke-linecap: butt; stroke-dashoffset: 0; stroke-linejoin: miter; stroke-miterlimit: 4; fill: rgb(255,255,255); fill-rule: nonzero; opacity: 1; visibility: hidden;" vector-effect="non-scaling-stroke"  x="-540" y="-540" rx="0" ry="0" width="1080" height="1080" />
</g>
<g transform="matrix(1 0 0 1 540 540)" id="d17ba580-57d3-4f25-b8ab-7912734c5b48"  >
</g>
<g transform="matrix(NaN NaN NaN NaN 0 0)"  >
<g style=""   >
</g>
</g>
<g transform="matrix(NaN NaN NaN NaN 0 0)"  >
<g style=""   >
</g>
</g>
<g transform="matrix(38.57 0 0 38.57 511.25 540)"  >
<g style=""   >
		<g transform="matrix(1 0 0 1 0.5 -1.5)"  >
<path style="stroke: none; stroke-width: 1; stroke-dasharray: none; stroke-linecap: butt; stroke-dashoffset: 0; stroke-linejoin: miter; stroke-miterlimit: 4; fill: rgb(0,0,0); fill-rule: nonzero; opacity: 1;" vector-effect="non-scaling-stroke"  transform=" translate(-14.5, -12.5)" d="M 12.5 17.207 L 18.707 11 L 20.707 11 L 24.354 7.354 L 23.646 6.646 L 20.293 10 L 18.293 10 L 12.5 15.793 L 9.5 12.793 L 4.646 17.646 L 5.354 18.354 L 9.5 14.207 z" stroke-linecap="round" />
</g>
		<g transform="matrix(1 0 0 1 0.5 1.5)"  >
<path style="stroke: none; stroke-width: 1; stroke-dasharray: none; stroke-linecap: butt; stroke-dashoffset: 0; stroke-linejoin: miter; stroke-miterlimit: 4; fill: rgb(0,0,0); fill-rule: nonzero; opacity: 1;" vector-effect="non-scaling-stroke"  transform=" translate(-14.5, -15.5)" d="M 9 16 L 10 16 L 10 17 L 9 17 z M 10 17 L 11 17 L 11 18 L 10 18 z M 9 18 L 10 18 L 10 19 L 9 19 z M 11 18 L 12 18 L 12 19 L 11 19 z M 10 19 L 11 19 L 11 20 L 10 20 z M 9 20 L 10 20 L 10 21 L 9 21 z M 11 20 L 12 20 L 12 21 L 11 21 z M 8 17 L 9 17 L 9 18 L 8 18 z M 7 18 L 8 18 L 8 19 L 7 19 z M 6 19 L 7 19 L 7 20 L 6 20 z M 8 19 L 9 19 L 9 20 L 8 20 z M 7 20 L 8 20 L 8 21 L 7 21 z M 5 20 L 6 20 L 6 21 L 5 21 z M 22 11 L 23 11 L 23 12 L 22 12 z M 23 10 L 24 10 L 24 11 L 23 11 z M 23 12 L 24 12 L 24 13 L 23 13 z M 22 13 L 23 13 L 23 14 L 22 14 z M 21 14 L 22 14 L 22 15 L 21 15 z M 23 14 L 24 14 L 24 15 L 23 15 z M 22 15 L 23 15 L 23 16 L 22 16 z M 21 16 L 22 16 L 22 17 L 21 17 z M 23 16 L 24 16 L 24 17 L 23 17 z M 22 17 L 23 17 L 23 18 L 22 18 z M 21 18 L 22 18 L 22 19 L 21 19 z M 23 18 L 24 18 L 24 19 L 23 19 z M 22 19 L 23 19 L 23 20 L 22 20 z M 21 20 L 22 20 L 22 21 L 21 21 z M 23 20 L 24 20 L 24 21 L 23 21 z M 18 13 L 19 13 L 19 14 L 18 14 z M 20 13 L 21 13 L 21 14 L 20 14 z M 21 12 L 22 12 L 22 13 L 21 13 z M 19 14 L 20 14 L 20 15 L 19 15 z M 18 15 L 19 15 L 19 16 L 18 16 z M 20 15 L 21 15 L 21 16 L 20 16 z M 19 16 L 20 16 L 20 17 L 19 17 z M 18 17 L 19 17 L 19 18 L 18 18 z M 20 17 L 21 17 L 21 18 L 20 18 z M 19 18 L 20 18 L 20 19 L 19 19 z M 18 19 L 19 19 L 19 20 L 18 20 z M 20 19 L 21 19 L 21 20 L 20 20 z M 19 20 L 20 20 L 20 21 L 19 21 z M 17 14 L 18 14 L 18 15 L 17 15 z M 16 15 L 17 15 L 17 16 L 16 16 z M 15 16 L 16 16 L 16 17 L 15 17 z M 17 16 L 18 16 L 18 17 L 17 17 z M 16 17 L 17 17 L 17 18 L 16 18 z M 15 18 L 16 18 L 16 19 L 15 19 z M 17 18 L 18 18 L 18 19 L 17 19 z M 16 19 L 17 19 L 17 20 L 16 20 z M 15 20 L 16 20 L 16 21 L 15 21 z M 17 20 L 18 20 L 18 21 L 17 21 z M 14 17 L 15 17 L 15 18 L 14 18 z M 13 18 L 14 18 L 14 19 L 13 19 z M 12 19 L 13 19 L 13 20 L 12 20 z M 14 19 L 15 19 L 15 20 L 14 20 z M 13 20 L 14 20 L 14 21 L 13 21 z" stroke-linecap="round" />
</g>
</g>
</g>
</svg>