<?xml version="1.0" encoding="UTF-8" standalone="no" ?>
<!DOCTYPE svg PUBLIC "-//W3C//DTD SVG 1.1//EN" "http://www.w3.org/Graphics/SVG/1.1/DTD/svg11.dtd">
<svg xmlns="http://www.w3.org/2000/svg" xmlns:xlink="http://www.w3.org/1999/xlink" version="1.1" width="1080" height="1080" viewBox="0 0 1080 1080" xml:space="preserve">
<desc>Created with Fabric.js 5.2.4</desc>
<defs>
</defs>
<rect x="0" y="0" width="100%" height="100%" fill="transparent"></rect>
<g transform="matrix(1 0 0 1 540 540)" id="1ebd24cb-8bf7-4fd2-925a-009b68259597"  >
<rect style="stroke: none; stroke-width: 1; stroke-dasharray: none; stroke-linecap: butt; stroke-dashoffset: 0; stroke-linejoin: miter; stroke-miterlimit: 4; fill: rgb(255,255,255); fill-rule: nonzero; opacity: 1; visibility: hidden;" vector-effect="non-scaling-stroke"  x="-540" y="-540" rx="0" ry="0" width="1080" height="1080" />
</g>
<g transform="matrix(1 0 0 1 540 540)" id="88ba268b-3665-48dc-92b4-e5631d5872a9"  >
</g>
<g transform="matrix(24.55 0 0 24.55 540 540)"  >
<path style="stroke: none; stroke-width: 1; stroke-dasharray: none; stroke-linecap: butt; stroke-dashoffset: 0; stroke-linejoin: miter; stroke-miterlimit: 4; fill: rgb(0,0,0); fill-rule: nonzero; opacity: 1;"  transform=" translate(-22, -21.5)" d="M 16 11 L 16 9 L 17 9 L 17 11 L 27 11 L 27 9 L 28 9 L 28 11 L 30.5 11 C 32.43299662440778 11 34 12.567003375592222 34 14.5 L 34 30.5 C 34 32.43299662440778 32.43299662440778 34 30.5 34 L 13.5 34 C 11.567003375592222 34 10 32.43299662440778 10 30.5 L 10 14.5 C 10 12.567003375592222 11.567003375592222 11 13.5 11 L 16 11 Z M 16 12 L 13.5 12 C 12.119288125423017 12 11 13.119288125423017 11 14.5 L 11 30.5 C 11 31.880711874576985 12.119288125423017 33 13.5 33 L 30.5 33 C 31.880711874576985 33 33 31.880711874576985 33 30.5 L 33 14.5 C 33 13.119288125423017 31.880711874576985 12 30.5 12 L 28 12 L 28 13 L 27 13 L 27 12 L 17 12 L 17 13 L 16 13 L 16 12 Z M 16 16 C 15.447715250169207 16 15 16.447715250169207 15 17 C 15 17.552284749830793 15.447715250169207 18 16 18 C 16.552284749830793 18 17 17.552284749830793 17 17 C 17 16.447715250169207 16.552284749830793 16 16 16 Z M 14 17 C 14 15.895430500338414 14.895430500338414 15 16 15 C 17.104569499661586 15 18 15.895430500338414 18 17 C 18 18.104569499661586 17.104569499661586 19 16 19 C 14.895430500338414 19 14 18.104569499661586 14 17 Z M 22 16 C 21.447715250169207 16 21 16.447715250169207 21 17 C 21 17.552284749830793 21.447715250169207 18 22 18 C 22.552284749830793 18 23 17.552284749830793 23 17 C 23 16.447715250169207 22.552284749830793 16 22 16 Z M 20 17 C 20 15.895430500338414 20.895430500338414 15 22 15 C 23.104569499661586 15 24 15.895430500338414 24 17 C 24 18.104569499661586 23.104569499661586 19 22 19 C 20.895430500338414 19 20 18.104569499661586 20 17 Z M 28 16 C 27.447715250169207 16 27 16.447715250169207 27 17 C 27 17.552284749830793 27.447715250169207 18 28 18 C 28.552284749830793 18 29 17.552284749830793 29 17 C 29 16.447715250169207 28.552284749830793 16 28 16 Z M 26 17 C 26 15.895430500338414 26.895430500338414 15 28 15 C 29.104569499661586 15 30 15.895430500338414 30 17 C 30 18.104569499661586 29.104569499661586 19 28 19 C 26.895430500338414 19 26 18.104569499661586 26 17 Z M 16 22 C 15.447715250169207 22 15 22.447715250169207 15 23 C 15 23.552284749830793 15.447715250169207 24 16 24 C 16.552284749830793 24 17 23.552284749830793 17 23 C 17 22.447715250169207 16.552284749830793 22 16 22 Z M 14 23 C 14 21.895430500338414 14.895430500338414 21 16 21 C 17.104569499661586 21 18 21.895430500338414 18 23 C 18 24.104569499661586 17.104569499661586 25 16 25 C 14.895430500338414 25 14 24.104569499661586 14 23 Z M 22 22 C 21.447715250169207 22 21 22.447715250169207 21 23 C 21 23.552284749830793 21.447715250169207 24 22 24 C 22.552284749830793 24 23 23.552284749830793 23 23 C 23 22.447715250169207 22.552284749830793 22 22 22 Z M 20 23 C 20 21.895430500338414 20.895430500338414 21 22 21 C 23.104569499661586 21 24 21.895430500338414 24 23 C 24 24.104569499661586 23.104569499661586 25 22 25 C 20.895430500338414 25 20 24.104569499661586 20 23 Z M 28 22 C 27.447715250169207 22 27 22.447715250169207 27 23 C 27 23.552284749830793 27.447715250169207 24 28 24 C 28.552284749830793 24 29 23.552284749830793 29 23 C 29 22.447715250169207 28.552284749830793 22 28 22 Z M 26 23 C 26 21.895430500338414 26.895430500338414 21 28 21 C 29.104569499661586 21 30 21.895430500338414 30 23 C 30 24.104569499661586 29.104569499661586 25 28 25 C 26.895430500338414 25 26 24.104569499661586 26 23 Z M 16 28 C 15.447715250169207 28 15 28.447715250169207 15 29 C 15 29.552284749830793 15.447715250169207 30 16 30 C 16.552284749830793 30 17 29.552284749830793 17 29 C 17 28.447715250169207 16.552284749830793 28 16 28 Z M 14 29 C 14 27.895430500338414 14.895430500338414 27 16 27 C 17.104569499661586 27 18 27.895430500338414 18 29 C 18 30.104569499661586 17.104569499661586 31 16 31 C 14.895430500338414 31 14 30.104569499661586 14 29 Z M 22 28 C 21.447715250169207 28 21 28.447715250169207 21 29 C 21 29.552284749830793 21.447715250169207 30 22 30 C 22.552284749830793 30 23 29.552284749830793 23 29 C 23 28.447715250169207 22.552284749830793 28 22 28 Z M 20 29 C 20 27.895430500338414 20.895430500338414 27 22 27 C 23.104569499661586 27 24 27.895430500338414 24 29 C 24 30.104569499661586 23.104569499661586 31 22 31 C 20.895430500338414 31 20 30.104569499661586 20 29 Z" stroke-linecap="round" />
</g>
</svg>