<?xml version="1.0" encoding="UTF-8" standalone="no" ?>
<!DOCTYPE svg PUBLIC "-//W3C//DTD SVG 1.1//EN" "http://www.w3.org/Graphics/SVG/1.1/DTD/svg11.dtd">
<svg xmlns="http://www.w3.org/2000/svg" xmlns:xlink="http://www.w3.org/1999/xlink" version="1.1" width="1080" height="1080" viewBox="0 0 1080 1080" xml:space="preserve">
<desc>Created with Fabric.js 5.2.4</desc>
<defs>
</defs>
<g transform="matrix(1 0 0 1 540 540)" id="086915a7-a650-4786-82db-286b2e1d40ef"  >
<rect style="stroke: none; stroke-width: 1; stroke-dasharray: none; stroke-linecap: butt; stroke-dashoffset: 0; stroke-linejoin: miter; stroke-miterlimit: 4; fill: rgb(255,255,255); fill-rule: nonzero; opacity: 1; visibility: hidden;" vector-effect="non-scaling-stroke"  x="-540" y="-540" rx="0" ry="0" width="1080" height="1080" />
</g>
<g transform="matrix(1 0 0 1 540 540)" id="d17ba580-57d3-4f25-b8ab-7912734c5b48"  >
</g>
<g transform="matrix(NaN NaN NaN NaN 0 0)"  >
<g style=""   >
</g>
</g>
<g transform="matrix(38.57 0 0 38.57 540 540)"  >
<g style=""   >
		<g transform="matrix(1 0 0 1 4.5 0)"  >
<path style="stroke: none; stroke-width: 1; stroke-dasharray: none; stroke-linecap: butt; stroke-dashoffset: 0; stroke-linejoin: miter; stroke-miterlimit: 4; fill: rgb(0,0,0); fill-rule: nonzero; opacity: 1;" vector-effect="non-scaling-stroke"  transform=" translate(-18.5, -14)" d="M 17 11 L 17 17 L 20 17 L 20 11 L 17 11 z M 16.5 10 L 20.5 10 C 20.7761423749154 10 21 10.223857625084603 21 10.5 L 21 17.5 C 21 17.7761423749154 20.7761423749154 18 20.5 18 L 16.5 18 C 16.2238576250846 18 16 17.7761423749154 16 17.5 L 16 10.5 C 16 10.223857625084603 16.2238576250846 10 16.5 10 z" stroke-linecap="round" />
</g>
		<g transform="matrix(1 0 0 1 4.5 0)"  >
<path style="stroke: none; stroke-width: 1; stroke-dasharray: none; stroke-linecap: butt; stroke-dashoffset: 0; stroke-linejoin: miter; stroke-miterlimit: 4; fill: rgb(0,0,0); fill-rule: nonzero; opacity: 1;" vector-effect="non-scaling-stroke"  transform=" translate(-18.5, -14)" d="M 18 7 L 19 7 L 19 10.5 L 18 10.5 z M 18 17.5 L 19 17.5 L 19 21 L 18 21 z" stroke-linecap="round" />
</g>
		<g transform="matrix(1 0 0 1 -3.5 0)"  >
<path style="stroke: none; stroke-width: 1; stroke-dasharray: none; stroke-linecap: butt; stroke-dashoffset: 0; stroke-linejoin: miter; stroke-miterlimit: 4; fill: rgb(0,0,0); fill-rule: nonzero; opacity: 1;" vector-effect="non-scaling-stroke"  transform=" translate(-10.5, -14)" d="M 9 8 L 9 20 L 12 20 L 12 8 L 9 8 z M 8.5 7 L 12.5 7 C 12.776142374915397 7 13 7.223857625084603 13 7.5 L 13 20.5 C 13 20.7761423749154 12.776142374915397 21 12.5 21 L 8.5 21 C 8.223857625084603 21 8 20.7761423749154 8 20.5 L 8 7.5 C 8 7.223857625084603 8.223857625084603 7 8.5 7 z" stroke-linecap="round" />
</g>
		<g transform="matrix(1 0 0 1 -3.5 0)"  >
<path style="stroke: none; stroke-width: 1; stroke-dasharray: none; stroke-linecap: butt; stroke-dashoffset: 0; stroke-linejoin: miter; stroke-miterlimit: 4; fill: rgb(0,0,0); fill-rule: nonzero; opacity: 1;" vector-effect="non-scaling-stroke"  transform=" translate(-10.5, -14)" d="M 10 4 L 11 4 L 11 7.5 L 10 7.5 z M 10 20.5 L 11 20.5 L 11 24 L 10 24 z" stroke-linecap="round" />
</g>
</g>
</g>
</svg>