<?xml version="1.0" encoding="UTF-8" standalone="no" ?>
<!DOCTYPE svg PUBLIC "-//W3C//DTD SVG 1.1//EN" "http://www.w3.org/Graphics/SVG/1.1/DTD/svg11.dtd">
<svg xmlns="http://www.w3.org/2000/svg" xmlns:xlink="http://www.w3.org/1999/xlink" version="1.1" width="1080" height="1080" viewBox="0 0 1080 1080" xml:space="preserve">
<desc>Created with Fabric.js 5.2.4</desc>
<defs>
</defs>
<rect x="0" y="0" width="100%" height="100%" fill="transparent"></rect>
<g transform="matrix(1 0 0 1 540 540)" id="1ebd24cb-8bf7-4fd2-925a-009b68259597"  >
<rect style="stroke: none; stroke-width: 1; stroke-dasharray: none; stroke-linecap: butt; stroke-dashoffset: 0; stroke-linejoin: miter; stroke-miterlimit: 4; fill: rgb(255,255,255); fill-rule: nonzero; opacity: 1; visibility: hidden;" vector-effect="non-scaling-stroke"  x="-540" y="-540" rx="0" ry="0" width="1080" height="1080" />
</g>
<g transform="matrix(1 0 0 1 540 540)" id="88ba268b-3665-48dc-92b4-e5631d5872a9"  >
</g>
<g transform="matrix(24.55 0 0 24.55 540 540)"  >
<path style="stroke: none; stroke-width: 1; stroke-dasharray: none; stroke-linecap: butt; stroke-dashoffset: 0; stroke-linejoin: miter; stroke-miterlimit: 4; fill: rgb(0,0,0); fill-rule: evenodd; opacity: 1;"  transform=" translate(-22.53, -21.5)" d="M 16.5 11 C 14.790095844115335 10.998066152859943 13.226831529310074 11.965391791135882 12.465533508268994 13.496470262421843 C 11.704235487227916 15.027548733707802 11.876456177887725 16.857809437028006 12.910000000000002 18.22 C 14.19550845090916 15.349271795669008 16.697040813239184 13.203529226808206 19.729999999999997 12.369999999999997 C 18.88369954801751 11.494164331305717 17.71791316692719 10.99969766192685 16.5 11 Z M 20.85 12.129999999999999 C 19.596940823562637 10.55592518987778 17.58440171570538 9.791659297306108 15.602364712543157 10.137199635922178 C 13.620327709380934 10.482739974538248 11.9851323701043 11.882937181224229 11.338641970077248 13.78817180462053 C 10.692151570050196 15.693406428016834 11.137548082081107 17.799596818811064 12.5 19.28 C 11.287741910280095 23.04738875683504 12.296789107397034 27.176363494462976 15.110000000000003 29.960000000000008 L 13.13 32.160000000000004 L 13.870000000000001 32.830000000000005 L 15.860000000000001 30.630000000000006 C 19.71900400178236 33.80039643991382 25.280995998217648 33.80039643991382 29.14 30.630000000000003 L 31.13 32.830000000000005 L 31.869999999999997 32.17000000000001 L 29.889999999999997 29.97000000000001 C 32.71366978742399 27.18386091109991 33.72029416323946 23.04121444139777 32.489999999999995 19.27000000000001 C 34.01204274947883 17.680537415873882 34.43560870443552 15.33475815963493 33.56556020696026 13.313367289560805 C 32.69551170948498 11.29197641948668 30.70064537604595 9.987140510680188 28.5 10 C 26.798597744895215 9.998954466822287 25.192495439172326 10.78539076824522 24.15 12.129999999999999 C 23.05678408132751 11.95722859657612 21.94321591867248 11.957228596576119 20.84999999999999 12.129999999999999 Z M 25.270000000000003 12.37 C 28.320000000000004 13.2 30.820000000000004 15.37 32.09 18.22 C 33.536854510997884 16.323647168585246 33.25266259104327 13.627780744308337 31.442188250264863 12.074807886016007 C 29.631713909486454 10.521835027723679 26.924004409186068 10.65133439796954 25.270000000000003 12.37 Z M 22 22 L 22 15 L 23 15 L 23 23 L 17 23 L 17 22 L 22 22 Z M 13 22.5 C 13 17.253294876607463 17.253294876607463 13 22.5 13 C 27.746705123392537 13 32 17.25329487660746 32 22.499999999999996 C 32 27.746705123392537 27.746705123392537 32 22.5 32 C 17.253294876607463 32 13 27.746705123392537 13 22.5 Z" stroke-linecap="round" />
</g>
</svg>