<?xml version="1.0" encoding="UTF-8" standalone="no" ?>
<!DOCTYPE svg PUBLIC "-//W3C//DTD SVG 1.1//EN" "http://www.w3.org/Graphics/SVG/1.1/DTD/svg11.dtd">
<svg xmlns="http://www.w3.org/2000/svg" xmlns:xlink="http://www.w3.org/1999/xlink" version="1.1" width="1080" height="1080" viewBox="0 0 1080 1080" xml:space="preserve">
<desc>Created with Fabric.js 5.2.4</desc>
<defs>
</defs>
<rect x="0" y="0" width="100%" height="100%" fill="transparent"></rect>
<g transform="matrix(1 0 0 1 540 540)" id="086915a7-a650-4786-82db-286b2e1d40ef"  >
<rect style="stroke: none; stroke-width: 1; stroke-dasharray: none; stroke-linecap: butt; stroke-dashoffset: 0; stroke-linejoin: miter; stroke-miterlimit: 4; fill: rgb(255,255,255); fill-rule: nonzero; opacity: 1; visibility: hidden;" vector-effect="non-scaling-stroke"  x="-540" y="-540" rx="0" ry="0" width="1080" height="1080" />
</g>
<g transform="matrix(1 0 0 1 540 540)" id="d17ba580-57d3-4f25-b8ab-7912734c5b48"  >
</g>
<g transform="matrix(NaN NaN NaN NaN 0 0)"  >
<g style=""   >
</g>
</g>
<g transform="matrix(NaN NaN NaN NaN 0 0)"  >
<g style=""   >
</g>
</g>
<g transform="matrix(38.57 0 0 38.57 540 540)"  >
<g style=""   >
		<g transform="matrix(1 0 0 1 -3.5 0)"  >
<path style="stroke: none; stroke-width: 1; stroke-dasharray: none; stroke-linecap: butt; stroke-dashoffset: 0; stroke-linejoin: miter; stroke-miterlimit: 4; fill: rgb(0,0,0); fill-rule: nonzero; opacity: 1;" vector-effect="non-scaling-stroke"  transform=" translate(-10.5, -14)" d="M 9 8 L 9 20 L 12 20 L 12 8 L 9 8 z M 8 7.498 C 8 7.223 8.215 7 8.498 7 L 12.501999999999999 7 C 12.777 7 12.999999999999998 7.22 12.999999999999998 7.498 L 12.999999999999998 20.502 C 13.001350638235607 20.634487249123485 12.94931675946774 20.76194175897967 12.855629259223706 20.855629259223704 C 12.761941758979672 20.94931675946774 12.634487249123485 21.001350638235607 12.501999999999999 21 L 8.498 21 C 8.365759111763076 21.000534313169965 8.238780180009586 20.948238204178995 8.145270987915294 20.854729012084704 C 8.051761795821005 20.761219819990412 7.999465686830035 20.634240888236924 8 20.502 L 8 7.498 z" stroke-linecap="round" />
</g>
		<g transform="matrix(1 0 0 1 -3.5 -8.25)"  >
<path style="stroke: none; stroke-width: 1; stroke-dasharray: none; stroke-linecap: butt; stroke-dashoffset: 0; stroke-linejoin: miter; stroke-miterlimit: 4; fill: rgb(0,0,0); fill-rule: nonzero; opacity: 1;" vector-effect="non-scaling-stroke"  transform=" translate(-10.5, -5.75)" d="M 10 4 L 11 4 L 11 7.5 L 10 7.5 z" stroke-linecap="round" />
</g>
		<g transform="matrix(1 0 0 1 4.5 -5)"  >
<path style="stroke: none; stroke-width: 1; stroke-dasharray: none; stroke-linecap: butt; stroke-dashoffset: 0; stroke-linejoin: miter; stroke-miterlimit: 4; fill: rgb(0,0,0); fill-rule: nonzero; opacity: 1;" vector-effect="non-scaling-stroke"  transform=" translate(-18.5, -9)" d="M 17 6 L 17 12 L 20 12 L 20 6 L 17 6 z M 16 5.5 C 16 5.224 16.215 5 16.498 5 L 20.502000000000002 5 C 20.777 5 21.000000000000004 5.23 21.000000000000004 5.5 L 21.000000000000004 12.5 C 21.000000000000004 12.776 20.785000000000004 13 20.502000000000002 13 L 16.498000000000005 13 C 16.223320342578848 12.997274256866366 16.001624805191003 12.774688375954874 16.000000000000004 12.5 L 16.000000000000004 5.5 z" stroke-linecap="round" />
</g>
		<g transform="matrix(1 0 0 1 4.5 -10.25)"  >
<path style="stroke: none; stroke-width: 1; stroke-dasharray: none; stroke-linecap: butt; stroke-dashoffset: 0; stroke-linejoin: miter; stroke-miterlimit: 4; fill: rgb(0,0,0); fill-rule: nonzero; opacity: 1;" vector-effect="non-scaling-stroke"  transform=" translate(-18.5, -3.75)" d="M 18 2 L 19 2 L 19 5.5 L 18 5.5 z" stroke-linecap="round" />
</g>
</g>
</g>
</svg>