<?xml version="1.0" encoding="UTF-8" standalone="no" ?>
<!DOCTYPE svg PUBLIC "-//W3C//DTD SVG 1.1//EN" "http://www.w3.org/Graphics/SVG/1.1/DTD/svg11.dtd">
<svg xmlns="http://www.w3.org/2000/svg" xmlns:xlink="http://www.w3.org/1999/xlink" version="1.1" width="1080" height="1080" viewBox="0 0 1080 1080" xml:space="preserve">
<desc>Created with Fabric.js 5.2.4</desc>
<defs>
</defs>
<rect x="0" y="0" width="100%" height="100%" fill="transparent"></rect>
<g transform="matrix(1 0 0 1 540 540)" id="1ebd24cb-8bf7-4fd2-925a-009b68259597"  >
<rect style="stroke: none; stroke-width: 1; stroke-dasharray: none; stroke-linecap: butt; stroke-dashoffset: 0; stroke-linejoin: miter; stroke-miterlimit: 4; fill: rgb(255,255,255); fill-rule: nonzero; opacity: 1; visibility: hidden;" vector-effect="non-scaling-stroke"  x="-540" y="-540" rx="0" ry="0" width="1080" height="1080" />
</g>
<g transform="matrix(1 0 0 1 540 540)" id="88ba268b-3665-48dc-92b4-e5631d5872a9"  >
</g>
<g transform="matrix(24.55 0 0 24.55 540 540)"  >
<path style="stroke: none; stroke-width: 1; stroke-dasharray: none; stroke-linecap: butt; stroke-dashoffset: 0; stroke-linejoin: miter; stroke-miterlimit: 4; fill: rgb(0,0,0); fill-rule: nonzero; opacity: 1;"  transform=" translate(-21.96, -21.5)" d="M 20.19 8.11 C 20.34035680909156 7.9895703603943105 20.54652629792615 7.966230418262093 20.720000000000002 8.049999999999999 C 23.131624007645748 9.233865705848388 25.15701143883965 11.078910420566121 26.559999999999995 13.369999999999987 C 28.08443974984828 15.964296235488142 28.342170810844383 19.11229705194053 27.260000000000005 21.92 C 28.06411542021525 21.743572147277405 28.72983014626747 21.182576591615423 29.040000000000003 20.42 C 29.480000000000004 19.44 29.500000000000004 18.07 29.03 16.660000000000004 C 28.964567126827948 16.443561910028844 29.052533153597007 16.210147388899284 29.24453888610001 16.090729189415708 C 29.436544618603016 15.97131098993213 29.684798021616043 15.995613426685026 29.85 16.150000000000002 C 31.03978737397776 17.29076944252228 31.9737249825578 18.671224666883294 32.59 20.2 C 33.25 21.910000000000004 33.510000000000005 24.01 32.99 26.6 C 32.06808555205487 30.600354698232728 29.071684782409807 33.79906023321688 25.14 34.980000000000004 C 24.9980341752973 35.023332841655105 24.844153996051162 35.00134995890566 24.72 34.92 C 23.17714874226925 33.91825449554475 22.189817115890285 32.25421242861392 22.049999999999997 30.42 C 20.8160371259631 31.42537641947085 20.070153635764022 32.9098664877695 20 34.5 C 20.001435778343588 34.645677881912654 19.93926318593685 34.78473706834782 19.829743191795693 34.88080723864709 C 19.720223197654533 34.97687740894635 19.574249178800272 35.02040296923135 19.43 35 C 17.435007049986265 34.628437311867984 15.612131700253205 33.6258558695148 14.23 32.14 C 12.705244401631788 30.608958602415406 11.599843359160246 28.711525660353665 11.02 26.630000000000003 C 9.459999999999999 20.790000000000003 13.11 15.130000000000003 17.28 13.050000000000002 C 17.472242693402798 12.954753914316193 17.7038214232423 12.992767733164897 17.855526845038703 13.1444731549613 C 18.007232266835107 13.296178576757704 18.04524608568381 13.527757306597206 17.950000000000003 13.720000000000002 C 17.240000000000002 15.140000000000002 17.430000000000003 15.820000000000002 17.610000000000003 16.110000000000003 C 17.69 16.240000000000002 17.800000000000004 16.330000000000002 17.890000000000004 16.400000000000002 C 18.861838792479897 15.498833921681513 19.6144065943848 14.387086032503817 20.090000000000003 13.15 C 20.490000000000002 11.960000000000003 20.500000000000004 10.560000000000002 20.010000000000005 8.620000000000001 C 19.964947514109177 8.429419133001884 20.035302228313864 8.2300807760886 20.190000000000005 8.110000000000001 Z M 18 17 L 17.88 17.48 L 17.83 17.48 C 17.69951294464884 17.440414408252572 17.5750329880564 17.38322091468307 17.459999999999997 17.31 C 17.174777253428854 17.14808882579828 16.934241491410464 16.91786173929496 16.759999999999998 16.639999999999997 C 16.459999999999997 16.159999999999997 16.339999999999996 15.519999999999996 16.54 14.659999999999997 C 13.239999999999998 16.959999999999997 10.719999999999999 21.629999999999995 11.98 26.369999999999997 C 12.515610867552315 28.285851300109954 13.534922268004552 30.031766435344018 14.940000000000001 31.439999999999998 C 16.05507506181813 32.62064499637709 17.473513209399915 33.471707884926154 19.039999999999996 33.9 C 19.21 32.6 19.939999999999998 30.45 22.24 29.07 C 22.394803716448152 28.975754231079872 22.588487243201307 28.97265637012382 22.74622582231011 29.061903197777482 C 22.90396440141891 29.151150025431146 23.001059167366567 29.318767183573183 23 29.5 C 23 30.68 23.24 31.6 23.63 32.33 C 23.985924235052774 32.97486752943683 24.485483200543744 33.529172682926806 25.090000000000003 33.949999999999996 C 28.34 32.92999999999999 31.3 29.949999999999996 32.01 26.399999999999995 C 32.46225001202294 24.457246911657204 32.34066092027212 22.424972092393507 31.659999999999993 20.549999999999994 C 31.33615283769935 19.7233136621822 30.898605913162243 18.9458264347355 30.359999999999992 18.239999999999995 C 30.419999999999995 19.169999999999998 30.299999999999997 20.07 29.959999999999997 20.83 C 29.372858742370916 22.204792932350472 27.99328086095323 23.070019522719367 26.5 23 C 26.331032346331913 23.000589280839602 26.1731973658348 22.91580003683546 26.08040350256276 22.774591984030184 C 25.987609639290724 22.633383931224913 25.972411499940282 22.454861905895815 26.04 22.3 C 27.47 18.96 26.99 16.12 25.689999999999998 13.88 C 24.589999999999996 11.97 22.889999999999997 10.47 21.22 9.47 C 21.500035125941686 10.797035298084039 21.43809508908382 12.173480561592111 21.04 13.47 C 20.56 14.89 19.619999999999997 16.09 18.349999999999998 17.35 C 18.22854809579905 17.475568473321633 18.0503662345313 17.528643921358835 17.88 17.490000000000002 L 18 17 Z" stroke-linecap="round" />
</g>
</svg>