<?xml version="1.0" encoding="UTF-8" standalone="no" ?>
<!DOCTYPE svg PUBLIC "-//W3C//DTD SVG 1.1//EN" "http://www.w3.org/Graphics/SVG/1.1/DTD/svg11.dtd">
<svg xmlns="http://www.w3.org/2000/svg" xmlns:xlink="http://www.w3.org/1999/xlink" version="1.1" width="1080" height="1080" viewBox="0 0 1080 1080" xml:space="preserve">
<desc>Created with Fabric.js 5.2.4</desc>
<defs>
</defs>
<rect x="0" y="0" width="100%" height="100%" fill="transparent"></rect>
<g transform="matrix(1 0 0 1 540 540)" id="1ebd24cb-8bf7-4fd2-925a-009b68259597"  >
<rect style="stroke: none; stroke-width: 1; stroke-dasharray: none; stroke-linecap: butt; stroke-dashoffset: 0; stroke-linejoin: miter; stroke-miterlimit: 4; fill: rgb(255,255,255); fill-rule: nonzero; opacity: 1; visibility: hidden;" vector-effect="non-scaling-stroke"  x="-540" y="-540" rx="0" ry="0" width="1080" height="1080" />
</g>
<g transform="matrix(1 0 0 1 540 540)" id="88ba268b-3665-48dc-92b4-e5631d5872a9"  >
</g>
<g transform="matrix(24.55 0 0 24.55 540 540)"  >
<path style="stroke: none; stroke-width: 1; stroke-dasharray: none; stroke-linecap: butt; stroke-dashoffset: 0; stroke-linejoin: miter; stroke-miterlimit: 4; fill: rgb(0,0,0); fill-rule: evenodd; opacity: 1;"  transform=" translate(-22.51, -22)" d="M 22.5 10 C 18.599625044032344 10 15.199768626586353 12.654527675904472 14.253788748764679 16.43844718719117 C 13.307808870943004 20.22236669847787 15.058492685910892 24.164529432485807 18.5 26 L 22 26 L 22 20 L 20 20 L 20 19 L 25 19 L 25 20 L 23 20 L 23 26 L 26.5 26 C 29.941507314089108 24.16452943248581 31.692191129056994 20.22236669847787 30.746211251235323 16.438447187191173 C 29.800231373413645 12.654527675904472 26.400374955967656 10.000000000000002 22.500000000000004 10 Z M 28 26.25 C 31.388873760568515 23.864392964405777 32.83776014602876 19.55561583744447 31.578818153289266 15.607115951125163 C 30.319876160549775 11.658616064805855 26.644311922595918 8.98372174530991 22.499999999999996 9 C 18.36295997650059 8.997523368287387 14.6999657955657 11.67260784472155 13.443242299518706 15.614149718687125 C 12.186518803471714 19.5556915926527 13.625044950545956 23.857347767872383 17 26.25 L 17 30.5 C 17 31.880711874576985 18.119288125423015 33 19.5 33 L 20 33 L 20 33.5 C 20 34.33 20.67 35 21.5 35 L 23.5 35 C 24.33 35 25 34.33 25 33.5 L 25 33 L 25.5 33 C 26.880711874576985 33 28 31.880711874576985 28 30.5 L 28 26.25 Z M 27 27 L 18 27 L 18 29 L 27 29 L 27 27 Z M 27 30 L 18 30 L 18 30.5 C 18 31.33 18.67 32 19.5 32 L 25.5 32 C 26.33 32 27 31.33 27 30.5 L 27 30 Z M 24 33 L 21 33 L 21 33.5 C 21 33.78 21.22 34 21.5 34 L 23.5 34 C 23.7761423749154 34 24 33.776142374915395 24 33.5 L 24 33 Z" stroke-linecap="round" />
</g>
</svg>