<?xml version="1.0" encoding="utf-8"?>

<!DOCTYPE svg PUBLIC "-//W3C//DTD SVG 1.1//EN" "http://www.w3.org/Graphics/SVG/1.1/DTD/svg11.dtd">
<!-- Uploaded to: SVG Repo, www.svgrepo.com, Generator: SVG Repo Mixer Tools -->
<svg fill="#000000" version="1.1" id="Layer_1" xmlns="http://www.w3.org/2000/svg" xmlns:xlink="http://www.w3.org/1999/xlink" 
	 width="800px" height="800px" viewBox="0 0 72 72" enable-background="new 0 0 72 72" xml:space="preserve">
<g>
	<g>
		<path d="M15.283,68.898c-4.089,0-6.868-3.285-6.868-8.174V11.275c0-4.889,2.779-8.174,6.87-8.174c1.563,0,3.213,0.485,4.87,1.441
			l38.924,24.77c2.877,1.659,4.506,4.052,4.506,6.692c0,2.638-1.62,5.027-4.566,6.729l-38.793,24.68
			C18.495,68.414,16.847,68.898,15.283,68.898z M15.285,7.102c-2.563,0-2.87,2.919-2.87,4.174v49.449
			c0,1.255,0.308,4.174,2.868,4.174c0.84,0,1.843-0.313,2.87-0.905l38.787-24.68c1.706-0.987,2.646-2.177,2.646-3.309
			c0-1.135-0.937-2.327-2.574-3.272L18.08,7.963C17.127,7.415,16.126,7.102,15.285,7.102z"/>
	</g>
	<g>
		<g>
			<path d="M35.163,48.955c-0.333,0-0.657-0.165-0.848-0.468c-0.294-0.467-0.153-1.084,0.313-1.379l0.54-0.34
				c0.468-0.293,1.085-0.154,1.379,0.314c0.295,0.467,0.154,1.084-0.313,1.379l-0.54,0.34
				C35.529,48.905,35.345,48.955,35.163,48.955z"/>
		</g>
		<g>
			<path d="M20.514,58.169c-0.333,0-0.657-0.165-0.848-0.468c-0.294-0.467-0.153-1.085,0.314-1.379l11.223-7.06
				c0.467-0.292,1.084-0.154,1.379,0.314c0.294,0.467,0.153,1.085-0.314,1.379l-11.223,7.06
				C20.88,58.119,20.695,58.169,20.514,58.169z"/>
		</g>
	</g>
</g>
</svg>