<?xml version="1.0" encoding="UTF-8" standalone="no" ?>
<!DOCTYPE svg PUBLIC "-//W3C//DTD SVG 1.1//EN" "http://www.w3.org/Graphics/SVG/1.1/DTD/svg11.dtd">
<svg xmlns="http://www.w3.org/2000/svg" xmlns:xlink="http://www.w3.org/1999/xlink" version="1.1" width="1080" height="1080" viewBox="0 0 1080 1080" xml:space="preserve">
<desc>Created with Fabric.js 5.2.4</desc>
<defs>
</defs>
<rect x="0" y="0" width="100%" height="100%" fill="transparent"></rect>
<g transform="matrix(1 0 0 1 540 540)" id="086915a7-a650-4786-82db-286b2e1d40ef"  >
<rect style="stroke: none; stroke-width: 1; stroke-dasharray: none; stroke-linecap: butt; stroke-dashoffset: 0; stroke-linejoin: miter; stroke-miterlimit: 4; fill: rgb(255,255,255); fill-rule: nonzero; opacity: 1; visibility: hidden;" vector-effect="non-scaling-stroke"  x="-540" y="-540" rx="0" ry="0" width="1080" height="1080" />
</g>
<g transform="matrix(1 0 0 1 540 540)" id="d17ba580-57d3-4f25-b8ab-7912734c5b48"  >
</g>
<g transform="matrix(NaN NaN NaN NaN 0 0)"  >
<g style=""   >
</g>
</g>
<g transform="matrix(NaN NaN NaN NaN 0 0)"  >
<g style=""   >
</g>
</g>
<g transform="matrix(38.57 0 0 38.57 540 540)"  >
<g style=""   >
		<g transform="matrix(1 0 0 1 3.6 -0.6)"  >
<path style="stroke: none; stroke-width: 1; stroke-dasharray: none; stroke-linecap: butt; stroke-dashoffset: 0; stroke-linejoin: miter; stroke-miterlimit: 4; fill: rgb(0,0,0); fill-rule: nonzero; opacity: 1;" vector-effect="non-scaling-stroke"  transform=" translate(-17.6, -13.4)" d="M 14.5 16 C 13.119288125423017 16 12 14.880711874576983 12 13.5 C 12 12.119288125423017 13.119288125423017 11 14.5 11 C 15.880711874576983 11 17 12.119288125423015 17 13.5 C 17 14.880711874576983 15.880711874576985 16 14.5 16 z M 14.5 15 C 15.32842712474619 15 16 14.32842712474619 16 13.5 C 16 12.67157287525381 15.32842712474619 12 14.5 12 C 13.67157287525381 12 13 12.67157287525381 13 13.5 C 13 14.32842712474619 13.67157287525381 15 14.5 15 z M 14.5 22 C 13.119288125423017 22 12 20.880711874576985 12 19.5 C 12 18.119288125423015 13.119288125423017 17 14.5 17 C 15.880711874576983 17 17 18.119288125423015 17 19.5 C 17 20.88071187457698 15.880711874576985 22 14.5 22 z M 14.5 21 C 15.32842712474619 21 16 20.32842712474619 16 19.5 C 16 18.67157287525381 15.32842712474619 18 14.5 18 C 13.67157287525381 18 13 18.67157287525381 13 19.5 C 13 20.32842712474619 13.67157287525381 21 14.5 21 z M 17.793 5.5 L 22.5 10.207 L 23.207 9.5 L 18.5 4.793 z" stroke-linecap="round" />
</g>
		<g transform="matrix(1 0 0 1 6.5 -3.5)"  >
<path style="stroke: none; stroke-width: 1; stroke-dasharray: none; stroke-linecap: butt; stroke-dashoffset: 0; stroke-linejoin: miter; stroke-miterlimit: 4; fill: rgb(0,0,0); fill-rule: nonzero; opacity: 1;" vector-effect="non-scaling-stroke"  transform=" translate(-20.5, -10.5)" d="M 18.5 10.207 L 23.207 5.5 L 22.5 4.793 L 17.793 9.5 z M 17.793 11.5 L 22.5 16.207 L 23.207 15.5 L 18.5 10.793 z" stroke-linecap="round" />
</g>
		<g transform="matrix(1 0 0 1 0.5 2.5)"  >
<path style="stroke: none; stroke-width: 1; stroke-dasharray: none; stroke-linecap: butt; stroke-dashoffset: 0; stroke-linejoin: miter; stroke-miterlimit: 4; fill: rgb(0,0,0); fill-rule: nonzero; opacity: 1;" vector-effect="non-scaling-stroke"  transform=" translate(-14.5, -16.5)" d="M 18.5 16.207 L 23.207 11.5 L 22.5 10.793 L 17.793 15.5 z M 5.793 17.5 L 10.5 22.207 L 11.207 21.5 L 6.5 16.793 z" stroke-linecap="round" />
</g>
		<g transform="matrix(1 0 0 1 -5.5 -0.5)"  >
<path style="stroke: none; stroke-width: 1; stroke-dasharray: none; stroke-linecap: butt; stroke-dashoffset: 0; stroke-linejoin: miter; stroke-miterlimit: 4; fill: rgb(0,0,0); fill-rule: nonzero; opacity: 1;" vector-effect="non-scaling-stroke"  transform=" translate(-8.5, -13.5)" d="M 6.5 22.207 L 11.207 17.5 L 10.5 16.793 L 5.793 21.5 z M 5.793 5.5 L 10.5 10.207 L 11.207 9.5 L 6.5 4.793 z" stroke-linecap="round" />
</g>
		<g transform="matrix(1 0 0 1 -5.5 -3.5)"  >
<path style="stroke: none; stroke-width: 1; stroke-dasharray: none; stroke-linecap: butt; stroke-dashoffset: 0; stroke-linejoin: miter; stroke-miterlimit: 4; fill: rgb(0,0,0); fill-rule: nonzero; opacity: 1;" vector-effect="non-scaling-stroke"  transform=" translate(-8.5, -10.5)" d="M 6.5 10.207 L 11.207 5.5 L 10.5 4.793 L 5.793 9.5 z M 5.793 11.5 L 10.5 16.207 L 11.207 15.5 L 6.5 10.793 z" stroke-linecap="round" />
</g>
		<g transform="matrix(1 0 0 1 -5.5 -0.5)"  >
<path style="stroke: none; stroke-width: 1; stroke-dasharray: none; stroke-linecap: butt; stroke-dashoffset: 0; stroke-linejoin: miter; stroke-miterlimit: 4; fill: rgb(0,0,0); fill-rule: nonzero; opacity: 1;" vector-effect="non-scaling-stroke"  transform=" translate(-8.5, -13.5)" d="M 6.5 16.207 L 11.207 11.5 L 10.5 10.793 L 5.793 15.5 z" stroke-linecap="round" />
</g>
</g>
</g>
</svg>