<?xml version="1.0" encoding="UTF-8" standalone="no" ?>
<!DOCTYPE svg PUBLIC "-//W3C//DTD SVG 1.1//EN" "http://www.w3.org/Graphics/SVG/1.1/DTD/svg11.dtd">
<svg xmlns="http://www.w3.org/2000/svg" xmlns:xlink="http://www.w3.org/1999/xlink" version="1.1" width="1080" height="1080" viewBox="0 0 1080 1080" xml:space="preserve">
<desc>Created with Fabric.js 5.2.4</desc>
<defs>
</defs>
<rect x="0" y="0" width="100%" height="100%" fill="transparent"></rect>
<g transform="matrix(1 0 0 1 540 540)" id="086915a7-a650-4786-82db-286b2e1d40ef"  >
<rect style="stroke: none; stroke-width: 1; stroke-dasharray: none; stroke-linecap: butt; stroke-dashoffset: 0; stroke-linejoin: miter; stroke-miterlimit: 4; fill: rgb(255,255,255); fill-rule: nonzero; opacity: 1; visibility: hidden;" vector-effect="non-scaling-stroke"  x="-540" y="-540" rx="0" ry="0" width="1080" height="1080" />
</g>
<g transform="matrix(1 0 0 1 540 540)" id="d17ba580-57d3-4f25-b8ab-7912734c5b48"  >
</g>
<g transform="matrix(NaN NaN NaN NaN 0 0)"  >
<g style=""   >
</g>
</g>
<g transform="matrix(NaN NaN NaN NaN 0 0)"  >
<g style=""   >
</g>
</g>
<g transform="matrix(38.57 0 0 38.57 540 540)"  >
<g style=""   >
		<g transform="matrix(1 0 0 1 -0.5 0.5)"  >
<path style="stroke: none; stroke-width: 1; stroke-dasharray: none; stroke-linecap: butt; stroke-dashoffset: 0; stroke-linejoin: miter; stroke-miterlimit: 4; fill: rgb(0,0,0); fill-rule: evenodd; opacity: 1;" vector-effect="non-scaling-stroke"  transform=" translate(-13.5, -14.5)" d="M 4.5 5 C 3.6715728752538097 5 3 5.67157287525381 3 6.5 C 3 7.32842712474619 3.6715728752538097 8 4.5 8 C 5.32842712474619 8 6 7.32842712474619 6 6.5 C 6 5.67157287525381 5.32842712474619 5 4.5 5 z M 2 6.5 C 1.9987091951636402 5.215617242830674 2.970871157172234 4.13922339863231 4.248751972564712 4.010144528390645 C 5.526632787957189 3.881065658148981 6.694414123676625 4.741303613687947 6.95 5.999999999999999 L 24 6 L 24 7 L 6.95 7 C 6.694414123676625 8.258696386312053 5.5266327879571895 9.11893434185102 4.248751972564712 8.989855471609355 C 2.970871157172235 8.860776601367691 1.9987091951636415 7.784382757169327 2.000000000000001 6.500000000000001 z M 4.5 15 C 3.6715728752538097 15 3 15.67157287525381 3 16.5 C 3 17.32842712474619 3.6715728752538097 18 4.5 18 C 5.32842712474619 18 6 17.32842712474619 6 16.5 C 6 15.67157287525381 5.32842712474619 15 4.5 15 z M 2 16.5 C 1.9987091951636402 15.215617242830673 2.970871157172234 14.13922339863231 4.248751972564712 14.010144528390645 C 5.526632787957189 13.88106565814898 6.694414123676625 14.741303613687947 6.95 16 L 20.05 16 C 20.30668235875413 14.742518390156729 21.47384935498062 13.88366523027006 22.7507621477962 14.01265961748719 C 24.027674940611778 14.141654004704321 24.99948974278318 15.216588206229344 24.99948974278318 16.5 C 24.99948974278318 17.783411793770654 24.02767494061178 18.85834599529568 22.750762147796202 18.98734038251281 C 21.47384935498062 19.116334769729942 20.30668235875413 18.25748160984327 20.05 17 L 6.95 17 C 6.694414123676625 18.258696386312053 5.5266327879571895 19.11893434185102 4.248751972564712 18.989855471609356 C 2.970871157172235 18.86077660136769 1.9987091951636415 17.784382757169325 2.000000000000001 16.5 z M 22.5 15 C 21.67157287525381 15 21 15.67157287525381 21 16.5 C 21 17.32842712474619 21.67157287525381 18 22.5 18 C 23.32842712474619 18 24 17.32842712474619 24 16.5 C 24 15.67157287525381 23.32842712474619 15 22.5 15 z M 4.5 21 C 3.6715728752538097 21 3 21.67157287525381 3 22.5 C 3 23.32842712474619 3.6715728752538097 24 4.5 24 C 5.32842712474619 24 6 23.32842712474619 6 22.5 C 6 21.67157287525381 5.32842712474619 21 4.5 21 z M 2 22.5 C 1.9987091951636402 21.215617242830675 2.970871157172234 20.13922339863231 4.248751972564712 20.010144528390647 C 5.526632787957189 19.88106565814898 6.694414123676625 20.741303613687947 6.95 22 L 24 22 L 24 23 L 6.95 23 C 6.694414123676625 24.258696386312053 5.5266327879571895 25.11893434185102 4.248751972564712 24.989855471609356 C 2.970871157172235 24.86077660136769 1.9987091951636415 23.784382757169325 2.000000000000001 22.5 z" stroke-linecap="round" />
</g>
		<g transform="matrix(1 0 0 1 1.5 -2.5)"  >
<path style="stroke: none; stroke-width: 1; stroke-dasharray: none; stroke-linecap: butt; stroke-dashoffset: 0; stroke-linejoin: miter; stroke-miterlimit: 4; fill: rgb(0,0,0); fill-rule: evenodd; opacity: 1;" vector-effect="non-scaling-stroke"  transform=" translate(-15.5, -11.5)" d="M 22.4 8.94 L 21.009999999999998 9.57 L 20.599999999999998 8.66 L 21.99 8.03 L 22.4 8.94 z M 18.4 10.74 L 17.009999999999998 11.370000000000001 L 16.599999999999998 10.46 L 17.99 9.83 L 18.4 10.74 z M 14.399999999999999 12.540000000000001 L 12.999999999999998 13.170000000000002 L 12.599999999999998 12.260000000000002 L 13.989999999999998 11.63 L 14.399999999999999 12.540000000000001 z M 10.399999999999999 14.340000000000002 L 8.999999999999998 14.970000000000002 L 8.599999999999998 14.060000000000002 L 9.989999999999998 13.430000000000001 L 10.399999999999999 14.340000000000002 z" stroke-linecap="round" />
</g>
</g>
</g>
</svg>